<svg viewBox="0 0 200 160" fill="none" xmlns="http://www.w3.org/2000/svg">
  <rect x="10" y="10" width="180" height="140" rx="8" fill="#0f172a" stroke="#1e293b" stroke-width="1.5"/>
  <rect x="20" y="20" width="160" height="50" rx="4" fill="#1e293b" opacity="0.4"/>
  <polyline points="30,55 50,45 70,50 90,35 110,40 130,30 150,38 170,25" 
    fill="none" stroke="#22d3ee" stroke-width="2" stroke-linecap="round" stroke-linejoin="round">
    <animate attributeName="stroke-dasharray" values="0 200;200 0" dur="2s" fill="freeze"/>
  </polyline>
  <circle cx="170" cy="25" r="3" fill="#22d3ee">
    <animate attributeName="r" values="3;5;3" dur="2s" repeatCount="indefinite"/>
  </circle>
  <rect x="20" y="80" width="75" height="60" rx="4" fill="#1e293b" opacity="0.4"/>
  <rect x="30" y="92" width="30" height="4" rx="1" fill="#475569"/>
  <rect x="30" y="102" width="20" height="30" rx="2" fill="#22d3ee" opacity="0.6"/>
  <rect x="55" y="112" width="20" height="20" rx="2" fill="#6366f1" opacity="0.6"/>
  <rect x="105" y="80" width="75" height="60" rx="4" fill="#1e293b" opacity="0.4"/>
  <rect x="115" y="92" width="30" height="4" rx="1" fill="#475569"/>
  <circle cx="147" cy="122" r="20" fill="none" stroke="#22d3ee" stroke-width="3" stroke-dasharray="80 25"/>
  <circle cx="147" cy="122" r="20" fill="none" stroke="#6366f1" stroke-width="3" stroke-dasharray="25 80" stroke-dashoffset="-80"/>
</svg>