<svg viewBox="0 0 200 160" fill="none" xmlns="http://www.w3.org/2000/svg">
  <rect x="10" y="10" width="180" height="140" rx="8" fill="#0f172a" stroke="#1e293b" stroke-width="1.5"/>
  <rect x="25" y="25" width="150" height="28" rx="4" fill="#1e293b" opacity="0.6"/>
  <rect x="35" y="33" width="12" height="12" rx="3" fill="#22d3ee" opacity="0.8"/>
  <rect x="55" y="36" width="80" height="6" rx="2" fill="#475569"/>
  <rect x="25" y="63" width="150" height="28" rx="4" fill="#1e293b" opacity="0.6"/>
  <rect x="35" y="71" width="12" height="12" rx="3" fill="#6366f1" opacity="0.8"/>
  <rect x="55" y="74" width="60" height="6" rx="2" fill="#475569"/>
  <rect x="25" y="101" width="150" height="28" rx="4" fill="#1e293b" opacity="0.6"/>
  <rect x="35" y="109" width="12" height="12" rx="3" fill="#a855f7" opacity="0.8"/>
  <rect x="55" y="112" width="90" height="6" rx="2" fill="#475569"/>
  <rect x="140" y="33" width="25" height="12" rx="2" fill="#22d3ee" opacity="0.2"/>
  <rect x="140" y="71" width="25" height="12" rx="2" fill="#6366f1" opacity="0.2"/>
  <rect x="140" y="109" width="25" height="12" rx="2" fill="#a855f7" opacity="0.2"/>
</svg>