<svg viewBox="0 0 200 160" fill="none" xmlns="http://www.w3.org/2000/svg">
  <rect x="10" y="10" width="180" height="140" rx="8" fill="#0f172a" stroke="#1e293b" stroke-width="1.5"/>
  <rect x="20" y="20" width="50" height="8" rx="2" fill="#334155"/>
  <rect x="20" y="35" width="30" height="4" rx="1" fill="#475569"/>
  <rect x="20" y="50" width="160" height="1" rx="0.5" fill="#1e293b"/>
  <rect x="20" y="60" width="70" height="80" rx="4" fill="#1e293b" opacity="0.5"/>
  <rect x="100" y="60" width="80" height="35" rx="4" fill="#1e293b" opacity="0.5"/>
  <rect x="100" y="105" width="80" height="35" rx="4" fill="#1e293b" opacity="0.5"/>
  <circle cx="40" cy="85" r="12" fill="none" stroke="#22d3ee" stroke-width="2.5" stroke-dasharray="60 20">
    <animateTransform attributeName="transform" type="rotate" from="0 40 85" to="360 40 85" dur="8s" repeatCount="indefinite"/>
  </circle>
  <rect x="60" y="78" width="20" height="4" rx="1" fill="#22d3ee" opacity="0.8"/>
  <rect x="60" y="88" width="15" height="4" rx="1" fill="#64748b"/>
  <rect x="110" y="72" width="60" height="4" rx="1" fill="#6366f1" opacity="0.6"/>
  <rect x="110" y="82" width="40" height="4" rx="1" fill="#6366f1" opacity="0.4"/>
  <rect x="110" y="117" width="60" height="4" rx="1" fill="#22d3ee" opacity="0.6"/>
  <rect x="110" y="127" width="50" height="4" rx="1" fill="#22d3ee" opacity="0.4"/>
</svg>