<svg viewBox="0 0 200 160" fill="none" xmlns="http://www.w3.org/2000/svg">
  <rect x="10" y="10" width="180" height="140" rx="8" fill="#0f172a" stroke="#1e293b" stroke-width="1.5"/>
  <rect x="30" y="20" width="140" height="25" rx="4" fill="#1e293b" opacity="0.6"/>
  <rect x="40" y="28" width="80" height="8" rx="2" fill="#475569"/>
  <rect x="130" y="28" width="30" height="8" rx="2" fill="#22d3ee" opacity="0.5"/>
  <rect x="30" y="55" width="140" height="25" rx="4" fill="#1e293b" opacity="0.4"/>
  <rect x="40" y="63" width="80" height="8" rx="2" fill="#475569" opacity="0.6"/>
  <rect x="130" y="63" width="30" height="8" rx="2" fill="#ef4444" opacity="0.4"/>
  <rect x="30" y="90" width="140" height="25" rx="4" fill="#1e293b" opacity="0.3"/>
  <rect x="40" y="98" width="80" height="8" rx="2" fill="#475569" opacity="0.4"/>
  <rect x="130" y="98" width="30" height="8" rx="2" fill="#ef4444" opacity="0.3"/>
  <path d="M160 55 L170 65 M170 55 L160 65" stroke="#ef4444" stroke-width="2" stroke-linecap="round" opacity="0.6"/>
  <path d="M160 90 L170 100 M170 90 L160 100" stroke="#ef4444" stroke-width="2" stroke-linecap="round" opacity="0.4"/>
  <text x="100" y="140" text-anchor="middle" fill="#64748b" font-size="8" font-family="monospace">30 days retention</text>
</svg>